<svg xmlns="http://www.w3.org/2000/svg" xmlns:xlink="http://www.w3.org/1999/xlink" width="500" zoomAndPan="magnify" viewBox="0 0 375 374.999991" height="500" preserveAspectRatio="xMidYMid meet" version="1.0"><defs><clipPath id="8535097732"><path d="M 38.453125 38.453125 L 336.203125 38.453125 L 336.203125 336.203125 L 38.453125 336.203125 Z M 38.453125 38.453125 " clip-rule="nonzero"/></clipPath></defs><g clip-path="url(#8535097732)"><path fill="#ffffff" d="M 308.820312 247.722656 C 308.15625 262.257812 305.726562 270.148438 303.6875 275.398438 C 300.984375 282.359375 297.753906 287.324219 292.539062 292.539062 C 287.324219 297.753906 282.355469 300.984375 275.398438 303.6875 C 270.148438 305.726562 262.257812 308.15625 247.722656 308.820312 C 232.007812 309.535156 227.296875 309.6875 187.5 309.6875 C 147.699219 309.6875 142.988281 309.535156 127.269531 308.820312 C 112.742188 308.15625 104.847656 305.726562 99.597656 303.6875 C 92.636719 300.984375 87.671875 297.753906 82.457031 292.539062 C 77.246094 287.324219 74.015625 282.359375 71.308594 275.398438 C 69.269531 270.148438 66.839844 262.257812 66.175781 247.722656 C 65.460938 232.007812 65.308594 227.296875 65.308594 187.5 C 65.308594 147.699219 65.460938 142.988281 66.175781 127.269531 C 66.839844 112.742188 69.269531 104.847656 71.308594 99.59375 C 74.015625 92.636719 77.246094 87.671875 82.457031 82.457031 C 87.671875 77.246094 92.636719 74.011719 99.597656 71.3125 C 104.847656 69.269531 112.742188 66.839844 127.269531 66.179688 C 142.988281 65.460938 147.699219 65.308594 187.5 65.308594 C 227.292969 65.308594 232.007812 65.460938 247.722656 66.179688 C 262.257812 66.839844 270.148438 69.269531 275.398438 71.3125 C 282.355469 74.011719 287.324219 77.246094 292.539062 82.457031 C 297.753906 87.671875 300.984375 92.636719 303.6875 99.59375 C 305.726562 104.847656 308.15625 112.742188 308.820312 127.269531 C 309.535156 142.988281 309.6875 147.699219 309.6875 187.5 C 309.6875 227.296875 309.535156 232.007812 308.820312 247.722656 Z M 335.648438 126.046875 C 334.921875 110.183594 332.402344 99.351562 328.714844 89.867188 C 324.910156 80.066406 319.8125 71.753906 311.527344 63.46875 C 303.242188 55.183594 294.929688 50.085938 285.128906 46.277344 C 275.648438 42.59375 264.8125 40.074219 248.949219 39.351562 C 233.050781 38.625 227.976562 38.453125 187.5 38.453125 C 147.019531 38.453125 141.945312 38.625 126.046875 39.351562 C 110.179688 40.074219 99.351562 42.59375 89.871094 46.277344 C 80.066406 50.085938 71.753906 55.183594 63.46875 63.46875 C 55.183594 71.753906 50.089844 80.066406 46.277344 89.867188 C 42.59375 99.351562 40.074219 110.183594 39.351562 126.046875 C 38.625 141.945312 38.453125 147.019531 38.453125 187.5 C 38.453125 227.976562 38.625 233.050781 39.351562 248.949219 C 40.074219 264.8125 42.59375 275.648438 46.277344 285.128906 C 50.089844 294.929688 55.183594 303.242188 63.46875 311.527344 C 71.753906 319.8125 80.066406 324.910156 89.871094 328.71875 C 99.351562 332.402344 110.179688 334.921875 126.046875 335.648438 C 141.945312 336.371094 147.019531 336.542969 187.5 336.542969 C 227.976562 336.542969 233.050781 336.371094 248.949219 335.648438 C 264.8125 334.921875 275.648438 332.402344 285.128906 328.71875 C 294.929688 324.910156 303.242188 319.8125 311.527344 311.527344 C 319.8125 303.242188 324.910156 294.929688 328.714844 285.128906 C 332.402344 275.648438 334.921875 264.8125 335.648438 248.949219 C 336.371094 233.050781 336.542969 227.976562 336.542969 187.5 C 336.542969 147.019531 336.371094 141.945312 335.648438 126.046875 " fill-opacity="1" fill-rule="nonzero"/></g><path fill="#ffffff" d="M 187.5 237.179688 C 160.058594 237.179688 137.816406 214.9375 137.816406 187.5 C 137.816406 160.058594 160.058594 137.816406 187.5 137.816406 C 214.9375 137.816406 237.179688 160.058594 237.179688 187.5 C 237.179688 214.9375 214.9375 237.179688 187.5 237.179688 Z M 187.5 110.960938 C 145.230469 110.960938 110.960938 145.226562 110.960938 187.5 C 110.960938 229.769531 145.230469 264.035156 187.5 264.035156 C 229.765625 264.035156 264.035156 229.769531 264.035156 187.5 C 264.035156 145.226562 229.765625 110.960938 187.5 110.960938 " fill-opacity="1" fill-rule="nonzero"/><path fill="#ffffff" d="M 267.058594 90.054688 C 257.179688 90.054688 249.171875 98.058594 249.171875 107.9375 C 249.171875 117.816406 257.179688 125.824219 267.058594 125.824219 C 276.9375 125.824219 284.945312 117.816406 284.945312 107.9375 C 284.945312 98.058594 276.9375 90.054688 267.058594 90.054688 " fill-opacity="1" fill-rule="nonzero"/></svg>