<svg xmlns="http://www.w3.org/2000/svg" xmlns:xlink="http://www.w3.org/1999/xlink" width="500" zoomAndPan="magnify" viewBox="0 0 375 374.999991" height="500" preserveAspectRatio="xMidYMid meet" version="1.0"><defs><clipPath id="acfa8558dc"><path d="M 27.648438 27.648438 L 347.148438 27.648438 L 347.148438 347.148438 L 27.648438 347.148438 Z M 27.648438 27.648438 " clip-rule="nonzero"/></clipPath></defs><g clip-path="url(#acfa8558dc)"><path fill="#ffffff" d="M 347.34375 187.539062 C 347.34375 190.15625 347.28125 192.769531 347.152344 195.382812 C 347.023438 197.996094 346.832031 200.605469 346.574219 203.207031 C 346.320312 205.8125 346 208.40625 345.613281 210.996094 C 345.230469 213.582031 344.785156 216.160156 344.273438 218.726562 C 343.761719 221.289062 343.191406 223.84375 342.554688 226.378906 C 341.917969 228.917969 341.222656 231.4375 340.460938 233.941406 C 339.703125 236.445312 338.882812 238.929688 338 241.390625 C 337.121094 243.855469 336.179688 246.292969 335.175781 248.710938 C 334.175781 251.128906 333.117188 253.519531 331.996094 255.882812 C 330.878906 258.25 329.703125 260.585938 328.46875 262.890625 C 327.238281 265.199219 325.949219 267.472656 324.601562 269.71875 C 323.257812 271.960938 321.859375 274.171875 320.40625 276.347656 C 318.953125 278.523438 317.445312 280.660156 315.886719 282.761719 C 314.328125 284.863281 312.722656 286.925781 311.0625 288.945312 C 309.402344 290.96875 307.695312 292.949219 305.9375 294.886719 C 304.179688 296.824219 302.375 298.71875 300.527344 300.570312 C 298.675781 302.417969 296.78125 304.222656 294.84375 305.980469 C 292.90625 307.734375 290.925781 309.445312 288.902344 311.105469 C 286.882812 312.761719 284.820312 314.371094 282.71875 315.929688 C 280.617188 317.488281 278.480469 318.996094 276.304688 320.449219 C 274.128906 321.902344 271.917969 323.300781 269.675781 324.644531 C 267.433594 325.992188 265.15625 327.28125 262.847656 328.511719 C 260.542969 329.746094 258.207031 330.921875 255.839844 332.039062 C 253.476562 333.160156 251.085938 334.21875 248.667969 335.21875 C 246.25 336.21875 243.8125 337.160156 241.347656 338.042969 C 238.886719 338.925781 236.402344 339.746094 233.898438 340.503906 C 231.394531 341.261719 228.875 341.960938 226.335938 342.597656 C 223.800781 343.230469 221.25 343.804688 218.683594 344.316406 C 216.117188 344.824219 213.539062 345.273438 210.953125 345.65625 C 208.363281 346.039062 205.769531 346.359375 203.164062 346.617188 C 200.5625 346.875 197.953125 347.066406 195.339844 347.195312 C 192.726562 347.324219 190.113281 347.386719 187.496094 347.386719 C 184.882812 347.386719 182.265625 347.324219 179.65625 347.195312 C 177.042969 347.066406 174.433594 346.875 171.832031 346.617188 C 169.226562 346.359375 166.632812 346.039062 164.042969 345.65625 C 161.457031 345.273438 158.878906 344.824219 156.3125 344.316406 C 153.746094 343.804688 151.195312 343.230469 148.660156 342.597656 C 146.121094 341.960938 143.601562 341.261719 141.097656 340.503906 C 138.59375 339.746094 136.109375 338.925781 133.648438 338.042969 C 131.183594 337.160156 128.742188 336.21875 126.328125 335.21875 C 123.910156 334.21875 121.519531 333.160156 119.15625 332.039062 C 116.789062 330.921875 114.453125 329.746094 112.148438 328.511719 C 109.839844 327.28125 107.5625 325.992188 105.320312 324.644531 C 103.078125 323.300781 100.867188 321.902344 98.691406 320.449219 C 96.515625 318.996094 94.378906 317.488281 92.277344 315.929688 C 90.175781 314.371094 88.113281 312.761719 86.09375 311.105469 C 84.070312 309.445312 82.089844 307.734375 80.152344 305.980469 C 78.214844 304.222656 76.320312 302.417969 74.46875 300.570312 C 72.621094 298.71875 70.816406 296.824219 69.058594 294.886719 C 67.300781 292.949219 65.59375 290.96875 63.933594 288.945312 C 62.273438 286.925781 60.667969 284.863281 59.109375 282.761719 C 57.550781 280.660156 56.042969 278.523438 54.589844 276.347656 C 53.136719 274.171875 51.738281 271.960938 50.394531 269.71875 C 49.046875 267.472656 47.757812 265.199219 46.527344 262.890625 C 45.292969 260.585938 44.117188 258.25 43 255.882812 C 41.878906 253.519531 40.820312 251.128906 39.820312 248.710938 C 38.816406 246.292969 37.875 243.855469 36.996094 241.390625 C 36.113281 238.929688 35.292969 236.445312 34.535156 233.941406 C 33.773438 231.4375 33.078125 228.917969 32.441406 226.378906 C 31.804688 223.84375 31.234375 221.289062 30.722656 218.726562 C 30.210938 216.160156 29.765625 213.582031 29.382812 210.996094 C 28.996094 208.40625 28.675781 205.8125 28.421875 203.207031 C 28.164062 200.605469 27.972656 197.996094 27.84375 195.382812 C 27.714844 192.769531 27.652344 190.15625 27.652344 187.539062 C 27.652344 184.925781 27.714844 182.308594 27.84375 179.695312 C 27.972656 177.085938 28.164062 174.476562 28.421875 171.871094 C 28.675781 169.269531 28.996094 166.671875 29.382812 164.085938 C 29.765625 161.5 30.210938 158.921875 30.722656 156.355469 C 31.234375 153.789062 31.804688 151.238281 32.441406 148.699219 C 33.078125 146.164062 33.773438 143.640625 34.535156 141.140625 C 35.292969 138.636719 36.113281 136.152344 36.996094 133.691406 C 37.875 131.226562 38.816406 128.785156 39.820312 126.371094 C 40.820312 123.953125 41.878906 121.5625 43 119.195312 C 44.117188 116.832031 45.292969 114.496094 46.527344 112.1875 C 47.757812 109.882812 49.046875 107.605469 50.394531 105.363281 C 51.738281 103.117188 53.136719 100.910156 54.589844 98.734375 C 56.042969 96.558594 57.550781 94.421875 59.109375 92.320312 C 60.667969 90.21875 62.273438 88.15625 63.933594 86.132812 C 65.59375 84.113281 67.300781 82.132812 69.058594 80.195312 C 70.816406 78.253906 72.621094 76.359375 74.46875 74.511719 C 76.320312 72.660156 78.214844 70.859375 80.152344 69.101562 C 82.089844 67.34375 84.070312 65.636719 86.09375 63.976562 C 88.113281 62.316406 90.175781 60.707031 92.277344 59.148438 C 94.378906 57.589844 96.515625 56.085938 98.691406 54.632812 C 100.867188 53.179688 103.078125 51.78125 105.320312 50.433594 C 107.5625 49.089844 109.839844 47.800781 112.148438 46.566406 C 114.453125 45.335938 116.789062 44.160156 119.15625 43.039062 C 121.519531 41.921875 123.910156 40.863281 126.328125 39.859375 C 128.742188 38.859375 131.183594 37.917969 133.648438 37.039062 C 136.109375 36.15625 138.59375 35.335938 141.097656 34.578125 C 143.601562 33.816406 146.121094 33.121094 148.660156 32.484375 C 151.195312 31.847656 153.746094 31.273438 156.3125 30.765625 C 158.878906 30.253906 161.457031 29.808594 164.042969 29.421875 C 166.632812 29.039062 169.226562 28.71875 171.832031 28.464844 C 174.433594 28.207031 177.042969 28.015625 179.65625 27.886719 C 182.265625 27.757812 184.882812 27.695312 187.496094 27.695312 C 190.113281 27.695312 192.726562 27.757812 195.339844 27.886719 C 197.953125 28.015625 200.5625 28.207031 203.164062 28.464844 C 205.769531 28.71875 208.363281 29.039062 210.953125 29.421875 C 213.539062 29.808594 216.117188 30.253906 218.683594 30.765625 C 221.25 31.273438 223.800781 31.847656 226.335938 32.484375 C 228.875 33.121094 231.394531 33.816406 233.898438 34.578125 C 236.402344 35.335938 238.886719 36.15625 241.347656 37.039062 C 243.8125 37.917969 246.25 38.859375 248.667969 39.859375 C 251.085938 40.863281 253.476562 41.921875 255.839844 43.039062 C 258.207031 44.160156 260.542969 45.335938 262.847656 46.566406 C 265.15625 47.800781 267.433594 49.089844 269.675781 50.433594 C 271.917969 51.78125 274.128906 53.179688 276.304688 54.632812 C 278.480469 56.085938 280.617188 57.589844 282.71875 59.148438 C 284.820312 60.707031 286.882812 62.316406 288.902344 63.976562 C 290.925781 65.636719 292.90625 67.34375 294.84375 69.101562 C 296.78125 70.859375 298.675781 72.660156 300.527344 74.511719 C 302.375 76.359375 304.179688 78.253906 305.9375 80.195312 C 307.695312 82.132812 309.402344 84.113281 311.0625 86.132812 C 312.722656 88.15625 314.328125 90.21875 315.886719 92.320312 C 317.445312 94.421875 318.953125 96.558594 320.40625 98.734375 C 321.859375 100.910156 323.257812 103.117188 324.601562 105.363281 C 325.949219 107.605469 327.238281 109.882812 328.46875 112.1875 C 329.703125 114.496094 330.878906 116.832031 331.996094 119.195312 C 333.117188 121.5625 334.175781 123.953125 335.175781 126.371094 C 336.179688 128.785156 337.121094 131.226562 338 133.691406 C 338.882812 136.152344 339.703125 138.636719 340.460938 141.140625 C 341.222656 143.640625 341.917969 146.164062 342.554688 148.699219 C 343.191406 151.238281 343.761719 153.789062 344.273438 156.355469 C 344.785156 158.921875 345.230469 161.5 345.613281 164.085938 C 346 166.671875 346.320312 169.269531 346.574219 171.871094 C 346.832031 174.476562 347.023438 177.085938 347.152344 179.695312 C 347.28125 182.308594 347.34375 184.925781 347.34375 187.539062 Z M 347.34375 187.539062 " fill-opacity="1" fill-rule="nonzero"/></g><path fill="#6e9d4a" d="M 322.566406 187.539062 C 322.566406 189.75 322.511719 191.960938 322.402344 194.167969 C 322.296875 196.375 322.132812 198.578125 321.914062 200.78125 C 321.699219 202.980469 321.429688 205.171875 321.105469 207.359375 C 320.78125 209.546875 320.402344 211.722656 319.972656 213.890625 C 319.539062 216.058594 319.054688 218.214844 318.519531 220.359375 C 317.980469 222.503906 317.390625 224.632812 316.75 226.75 C 316.109375 228.863281 315.414062 230.960938 314.671875 233.042969 C 313.925781 235.125 313.128906 237.1875 312.285156 239.230469 C 311.4375 241.269531 310.542969 243.292969 309.597656 245.289062 C 308.652344 247.289062 307.660156 249.261719 306.617188 251.210938 C 305.574219 253.160156 304.484375 255.082031 303.351562 256.980469 C 302.214844 258.875 301.03125 260.742188 299.804688 262.582031 C 298.574219 264.417969 297.300781 266.226562 295.984375 268 C 294.667969 269.777344 293.308594 271.519531 291.90625 273.226562 C 290.503906 274.933594 289.0625 276.609375 287.578125 278.246094 C 286.09375 279.882812 284.570312 281.484375 283.003906 283.046875 C 281.441406 284.609375 279.84375 286.136719 278.203125 287.621094 C 276.566406 289.105469 274.894531 290.546875 273.183594 291.949219 C 271.476562 293.351562 269.734375 294.710938 267.957031 296.027344 C 266.183594 297.34375 264.375 298.617188 262.539062 299.84375 C 260.699219 301.074219 258.832031 302.253906 256.9375 303.390625 C 255.039062 304.527344 253.117188 305.617188 251.167969 306.660156 C 249.21875 307.703125 247.246094 308.695312 245.246094 309.640625 C 243.25 310.585938 241.230469 311.480469 239.1875 312.328125 C 237.144531 313.171875 235.082031 313.96875 233 314.714844 C 230.917969 315.457031 228.820312 316.152344 226.707031 316.792969 C 224.589844 317.433594 222.460938 318.023438 220.316406 318.5625 C 218.171875 319.097656 216.015625 319.582031 213.847656 320.011719 C 211.679688 320.445312 209.503906 320.824219 207.316406 321.148438 C 205.128906 321.472656 202.9375 321.742188 200.738281 321.957031 C 198.535156 322.175781 196.332031 322.335938 194.125 322.445312 C 191.917969 322.554688 189.707031 322.609375 187.496094 322.609375 C 185.289062 322.609375 183.078125 322.554688 180.871094 322.445312 C 178.664062 322.335938 176.457031 322.175781 174.257812 321.957031 C 172.058594 321.742188 169.867188 321.472656 167.679688 321.148438 C 165.492188 320.824219 163.316406 320.445312 161.148438 320.011719 C 158.980469 319.582031 156.824219 319.097656 154.679688 318.5625 C 152.535156 318.023438 150.40625 317.433594 148.289062 316.792969 C 146.175781 316.152344 144.074219 315.457031 141.996094 314.714844 C 139.914062 313.96875 137.851562 313.171875 135.808594 312.328125 C 133.765625 311.480469 131.746094 310.585938 129.75 309.640625 C 127.75 308.695312 125.777344 307.703125 123.828125 306.660156 C 121.878906 305.617188 119.953125 304.527344 118.058594 303.390625 C 116.164062 302.253906 114.296875 301.074219 112.457031 299.84375 C 110.621094 298.617188 108.8125 297.34375 107.039062 296.027344 C 105.261719 294.710938 103.519531 293.351562 101.8125 291.949219 C 100.101562 290.546875 98.429688 289.105469 96.792969 287.621094 C 95.152344 286.136719 93.554688 284.609375 91.988281 283.046875 C 90.425781 281.484375 88.902344 279.882812 87.417969 278.246094 C 85.933594 276.609375 84.492188 274.933594 83.089844 273.226562 C 81.6875 271.519531 80.328125 269.777344 79.011719 268 C 77.691406 266.226562 76.421875 264.417969 75.191406 262.582031 C 73.964844 260.742188 72.78125 258.875 71.644531 256.980469 C 70.507812 255.082031 69.421875 253.160156 68.378906 251.210938 C 67.335938 249.261719 66.34375 247.289062 65.398438 245.289062 C 64.453125 243.292969 63.558594 241.269531 62.710938 239.230469 C 61.863281 237.1875 61.070312 235.125 60.324219 233.042969 C 59.582031 230.960938 58.886719 228.863281 58.246094 226.75 C 57.605469 224.632812 57.015625 222.503906 56.476562 220.359375 C 55.941406 218.214844 55.457031 216.058594 55.023438 213.890625 C 54.59375 211.722656 54.214844 209.546875 53.890625 207.359375 C 53.566406 205.171875 53.296875 202.980469 53.078125 200.78125 C 52.863281 198.578125 52.699219 196.375 52.59375 194.167969 C 52.484375 191.960938 52.429688 189.75 52.429688 187.539062 C 52.429688 185.328125 52.484375 183.121094 52.59375 180.914062 C 52.699219 178.703125 52.863281 176.5 53.078125 174.300781 C 53.296875 172.101562 53.566406 169.910156 53.890625 167.722656 C 54.214844 165.535156 54.59375 163.359375 55.023438 161.191406 C 55.457031 159.023438 55.941406 156.867188 56.476562 154.722656 C 57.015625 152.578125 57.605469 150.449219 58.246094 148.332031 C 58.886719 146.214844 59.582031 144.117188 60.324219 142.039062 C 61.070312 139.957031 61.863281 137.894531 62.710938 135.851562 C 63.558594 133.808594 64.453125 131.789062 65.398438 129.792969 C 66.34375 127.792969 67.335938 125.820312 68.378906 123.871094 C 69.421875 121.921875 70.507812 119.996094 71.644531 118.101562 C 72.78125 116.207031 73.964844 114.339844 75.191406 112.5 C 76.421875 110.664062 77.691406 108.855469 79.011719 107.082031 C 80.328125 105.304688 81.6875 103.5625 83.089844 101.855469 C 84.492188 100.144531 85.933594 98.472656 87.417969 96.832031 C 88.902344 95.195312 90.425781 93.59375 91.988281 92.03125 C 93.554688 90.46875 95.152344 88.945312 96.792969 87.460938 C 98.429688 85.976562 100.101562 84.535156 101.8125 83.132812 C 103.519531 81.730469 105.261719 80.371094 107.039062 79.050781 C 108.8125 77.734375 110.621094 76.464844 112.457031 75.234375 C 114.296875 74.007812 116.164062 72.824219 118.058594 71.6875 C 119.953125 70.550781 121.878906 69.460938 123.828125 68.421875 C 125.777344 67.378906 127.75 66.386719 129.75 65.441406 C 131.746094 64.496094 133.765625 63.597656 135.808594 62.753906 C 137.851562 61.90625 139.914062 61.113281 141.996094 60.367188 C 144.074219 59.621094 146.175781 58.929688 148.289062 58.289062 C 150.40625 57.644531 152.535156 57.058594 154.679688 56.519531 C 156.824219 55.984375 158.980469 55.5 161.148438 55.066406 C 163.316406 54.636719 165.492188 54.257812 167.679688 53.933594 C 169.867188 53.609375 172.058594 53.339844 174.257812 53.121094 C 176.457031 52.90625 178.664062 52.742188 180.871094 52.632812 C 183.078125 52.527344 185.289062 52.472656 187.496094 52.472656 C 189.707031 52.472656 191.917969 52.527344 194.125 52.632812 C 196.332031 52.742188 198.535156 52.90625 200.738281 53.121094 C 202.9375 53.339844 205.128906 53.609375 207.316406 53.933594 C 209.503906 54.257812 211.679688 54.636719 213.847656 55.066406 C 216.015625 55.5 218.171875 55.984375 220.316406 56.519531 C 222.460938 57.058594 224.589844 57.644531 226.707031 58.289062 C 228.820312 58.929688 230.917969 59.621094 233 60.367188 C 235.082031 61.113281 237.144531 61.90625 239.1875 62.753906 C 241.230469 63.597656 243.25 64.496094 245.246094 65.441406 C 247.246094 66.386719 249.21875 67.378906 251.167969 68.421875 C 253.117188 69.460938 255.039062 70.550781 256.9375 71.6875 C 258.832031 72.824219 260.699219 74.007812 262.539062 75.234375 C 264.375 76.464844 266.183594 77.734375 267.957031 79.050781 C 269.734375 80.371094 271.476562 81.730469 273.183594 83.132812 C 274.894531 84.535156 276.566406 85.976562 278.203125 87.460938 C 279.84375 88.945312 281.441406 90.46875 283.003906 92.03125 C 284.570312 93.59375 286.09375 95.195312 287.578125 96.832031 C 289.0625 98.472656 290.503906 100.144531 291.90625 101.855469 C 293.308594 103.5625 294.667969 105.304688 295.984375 107.082031 C 297.300781 108.855469 298.574219 110.664062 299.804688 112.5 C 301.03125 114.339844 302.214844 116.207031 303.351562 118.101562 C 304.484375 119.996094 305.574219 121.921875 306.617188 123.871094 C 307.660156 125.820312 308.652344 127.792969 309.597656 129.792969 C 310.542969 131.789062 311.4375 133.808594 312.285156 135.851562 C 313.128906 137.894531 313.925781 139.957031 314.671875 142.039062 C 315.414062 144.117188 316.109375 146.214844 316.75 148.332031 C 317.390625 150.449219 317.980469 152.578125 318.519531 154.722656 C 319.054688 156.867188 319.539062 159.023438 319.972656 161.191406 C 320.402344 163.359375 320.78125 165.535156 321.105469 167.722656 C 321.429688 169.910156 321.699219 172.101562 321.914062 174.300781 C 322.132812 176.5 322.296875 178.703125 322.402344 180.914062 C 322.511719 183.121094 322.566406 185.328125 322.566406 187.539062 Z M 322.566406 187.539062 " fill-opacity="1" fill-rule="nonzero"/><path fill="#ffffff" d="M 258.097656 240.117188 L 236.714844 218.734375 C 232.0625 214.085938 224.519531 214.085938 219.867188 218.734375 L 210.34375 228.261719 C 193.355469 220.890625 178.933594 204.542969 178.933594 204.542969 C 178.933594 204.542969 162.585938 190.121094 155.214844 173.132812 L 164.738281 163.605469 C 169.390625 158.957031 169.390625 151.414062 164.738281 146.761719 L 143.359375 125.378906 C 139.105469 121.128906 132.214844 121.128906 127.964844 125.378906 C 116.976562 136.367188 112.699219 152.515625 117.203125 167.386719 C 121.660156 182.117188 132.648438 201.847656 157.136719 226.339844 C 181.625 250.828125 201.359375 261.8125 216.085938 266.273438 C 230.960938 270.777344 247.105469 266.5 258.09375 255.507812 C 262.347656 251.257812 262.347656 244.367188 258.09375 240.117188 Z M 258.097656 240.117188 " fill-opacity="1" fill-rule="nonzero"/></svg>